<svg width="24" height="24" viewBox="0 0 24 24" fill="none" xmlns="http://www.w3.org/2000/svg">
<rect width="24" height="24" fill="#1E1E1E"/>
<g id="Home/Desktop/Default" clip-path="url(#clip0_0_1)">
<rect width="1512" height="2289" transform="translate(-1443 -49)" fill="#FCF7E6"/>
<g id="Header">
<mask id="path-1-inside-1_0_1" fill="white">
<path d="M-1443 -49H69V144.879H-1443V-49Z"/>
</mask>
<path d="M-1443 -49H69V144.879H-1443V-49Z" fill="#FCF7E6"/>
<path d="M69 143.879H-1443V145.879H69V143.879Z" fill="black" mask="url(#path-1-inside-1_0_1)"/>
</g>
<g id="Cart drawer">
<rect id="Rectangle 1" x="-376" y="-49" width="445" height="2289" fill="#1E1E1E"/>
<g id="Header_2">
<g id="System-Line/close-line" clip-path="url(#clip1_0_1)">
<g id="Group">
<path id="Vector" d="M12 10.586L16.95 5.63599L18.364 7.04999L13.414 12L18.364 16.95L16.95 18.364L12 13.414L7.04999 18.364L5.63599 16.95L10.586 12L5.63599 7.04999L7.04999 5.63599L12 10.586Z" fill="#FCF7E6"/>
</g>
</g>
</g>
</g>
</g>
<defs>
<clipPath id="clip0_0_1">
<rect width="1512" height="2289" fill="white" transform="translate(-1443 -49)"/>
</clipPath>
<clipPath id="clip1_0_1">
<rect width="24" height="24" fill="white"/>
</clipPath>
</defs>
</svg>
